<?xml version="1.0" encoding="UTF-8"?>
<svg id="Layer_1" data-name="Layer 1" xmlns="http://www.w3.org/2000/svg" viewBox="0 0 1891.85 625.36">
  <defs>
    <style>
      .cls-1 {
        fill: #016fd0;
      }

      .cls-2 {
        fill: #111;
      }

      .cls-3 {
        fill: #101010;
      }

      .cls-4 {
        fill: #2ae0bb;
      }
    </style>
  </defs>
  <g id="An-Equifax-Company">
    <path id="Shape" class="cls-3" d="M718.19,593.6l-11.61-29.89h-37.79l-11.54,29.89h-11.09l36.89-94.58h9.87l36.63,94.58h-11.35Zm-14.9-39.62l-11.03-29.7c-.26-.77-.68-2.04-1.26-3.8-.58-1.76-1.17-3.59-1.77-5.48-.6-1.89-1.1-3.41-1.48-4.57-.43,1.76-.89,3.51-1.39,5.25-.49,1.74-.98,3.35-1.45,4.83-.47,1.48-.88,2.74-1.23,3.77l-11.22,29.7h30.83Z"/>
    <path id="Path" class="cls-3" d="M768.55,521.7c8.38,0,14.73,2.05,19.02,6.15,4.3,4.1,6.45,10.68,6.45,19.75v46h-10.58v-45.29c0-5.88-1.34-10.29-4.03-13.21-2.69-2.92-6.8-4.38-12.35-4.38-7.82,0-13.33,2.21-16.51,6.64-3.18,4.42-4.77,10.84-4.77,19.26v36.98h-10.71v-70.61h8.64l1.61,10.18h.58c1.5-2.49,3.42-4.58,5.74-6.28,2.32-1.7,4.92-2.99,7.8-3.87,2.88-.88,5.91-1.32,9.09-1.32Z"/>
    <polygon id="Path-2" data-name="Path" class="cls-3" points="892.76 593.6 840.26 593.6 840.26 499.41 892.76 499.41 892.76 509.07 851.23 509.07 851.23 539.55 890.37 539.55 890.37 549.08 851.23 549.08 851.23 583.93 892.76 583.93 892.76 593.6"/>
    <path id="Shape-2" data-name="Shape" class="cls-3" d="M953.57,625.17v-30.28c0-1.68,.04-3.61,.13-5.8,.09-2.19,.24-4.08,.45-5.67h-.71c-1.98,3.26-4.79,5.99-8.45,8.18-3.65,2.19-8.36,3.29-14.12,3.29-8.64,0-15.59-3.05-20.83-9.15-5.25-6.1-7.87-15.2-7.87-27.32,0-7.95,1.2-14.65,3.61-20.1,2.41-5.45,5.81-9.59,10.22-12.4,4.41-2.81,9.56-4.22,15.45-4.22s10.23,1.11,13.8,3.32c3.57,2.21,6.36,4.91,8.38,8.09h.52l1.61-10.11h8.51v102.18h-10.71Zm-20.7-39.17c4.99,0,8.99-.93,12-2.8,3.01-1.87,5.21-4.69,6.61-8.47,1.4-3.78,2.14-8.48,2.22-14.11v-2.25c0-9.11-1.55-16.01-4.64-20.71-3.1-4.7-8.49-7.05-16.19-7.05-6.62,0-11.54,2.52-14.77,7.57-3.22,5.05-4.84,11.89-4.84,20.52s1.61,15.34,4.84,20.13c3.22,4.79,8.15,7.18,14.77,7.18Z"/>
    <path id="Path-3" data-name="Path" class="cls-3" d="M1039.47,522.99v70.61h-8.77l-1.55-9.92h-.58c-1.46,2.45-3.35,4.51-5.68,6.18s-4.93,2.93-7.84,3.77c-2.9,.84-5.99,1.26-9.25,1.26-5.59,0-10.28-.9-14.06-2.71-3.78-1.8-6.63-4.6-8.54-8.38-1.91-3.78-2.87-8.63-2.87-14.56v-46.26h10.83v45.48c0,5.88,1.33,10.28,4,13.17,2.67,2.9,6.73,4.35,12.19,4.35s9.43-.99,12.54-2.96c3.12-1.98,5.36-4.89,6.74-8.73,1.38-3.84,2.06-8.56,2.06-14.14v-37.17h10.77Z"/>
    <path id="Shape-3" data-name="Shape" class="cls-3" d="M1066.94,522.99v70.61h-10.71v-70.61h10.71Zm-5.22-26.41c1.76,0,3.28,.57,4.55,1.71,1.27,1.14,1.9,2.91,1.9,5.32s-.63,4.12-1.9,5.28c-1.27,1.16-2.78,1.74-4.55,1.74s-3.39-.58-4.61-1.74c-1.23-1.16-1.84-2.92-1.84-5.28s.61-4.18,1.84-5.32c1.23-1.14,2.76-1.71,4.61-1.71Z"/>
    <path id="Path-4" data-name="Path" class="cls-3" d="M1115.18,531.36h-17.61v62.23h-10.71v-62.23h-12.51v-5.15l12.51-3.54v-4.7c0-5.93,.88-10.75,2.64-14.46,1.76-3.72,4.32-6.45,7.67-8.21,3.35-1.76,7.44-2.64,12.25-2.64,2.71,0,5.19,.24,7.45,.71,2.26,.47,4.25,1.01,5.97,1.61l-2.77,8.44c-1.46-.47-3.11-.91-4.93-1.32-1.83-.41-3.69-.61-5.58-.61-4.08,0-7.1,1.32-9.06,3.96-1.96,2.64-2.93,6.78-2.93,12.4v5.15h17.61v8.38Z"/>
    <path id="Shape-4" data-name="Shape" class="cls-3" d="M1148.71,521.83c8.43,0,14.68,1.89,18.77,5.67,4.08,3.78,6.13,9.81,6.13,18.1v48h-7.8l-2.06-10.44h-.52c-1.98,2.58-4.04,4.74-6.19,6.47-2.15,1.74-4.63,3.05-7.45,3.93-2.82,.88-6.27,1.32-10.35,1.32-4.3,0-8.12-.75-11.45-2.25-3.33-1.5-5.95-3.78-7.87-6.83-1.91-3.05-2.87-6.91-2.87-11.6,0-7.04,2.79-12.46,8.38-16.24,5.59-3.78,14.1-5.84,25.54-6.18l12.19-.52v-4.32c0-6.1-1.31-10.37-3.93-12.82-2.62-2.45-6.32-3.67-11.09-3.67-3.7,0-7.22,.54-10.58,1.61-3.35,1.07-6.54,2.34-9.54,3.8l-3.29-8.12c3.18-1.63,6.84-3.03,10.96-4.19,4.13-1.16,8.47-1.74,13.03-1.74Zm14.32,36.98l-10.77,.45c-8.81,.34-15.03,1.78-18.64,4.32-3.61,2.53-5.42,6.12-5.42,10.76,0,4.04,1.23,7.02,3.68,8.96s5.7,2.9,9.74,2.9c6.28,0,11.41-1.74,15.41-5.22,4-3.48,6-8.7,6-15.66v-6.51Z"/>
    <polygon id="Path-5" data-name="Path" class="cls-3" points="1206.62 557.46 1182.18 522.99 1194.44 522.99 1213.07 550.18 1231.65 522.99 1243.77 522.99 1219.33 557.46 1245.12 593.6 1232.87 593.6 1213.07 564.8 1193.15 593.6 1181.02 593.6 1206.62 557.46"/>
    <path id="Path-6" data-name="Path" class="cls-3" d="M1323.41,507.72c-5.2,0-9.88,.89-14.03,2.67-4.15,1.78-7.67,4.36-10.58,7.73-2.9,3.37-5.13,7.44-6.67,12.21-1.55,4.77-2.32,10.14-2.32,16.11,0,7.9,1.24,14.76,3.71,20.58,2.47,5.82,6.17,10.32,11.09,13.5,4.92,3.18,11.08,4.77,18.48,4.77,4.21,0,8.18-.35,11.9-1.06,3.72-.71,7.34-1.6,10.87-2.67v9.53c-3.44,1.29-7.05,2.24-10.83,2.87-3.78,.62-8.28,.93-13.48,.93-9.59,0-17.6-1.99-24.02-5.96-6.43-3.97-11.24-9.59-14.45-16.85-3.2-7.26-4.8-15.83-4.8-25.71,0-7.13,1-13.65,3-19.55,2-5.91,4.92-11.01,8.77-15.3,3.85-4.29,8.58-7.61,14.19-9.95,5.61-2.34,12.05-3.51,19.31-3.51,4.77,0,9.37,.47,13.8,1.42,4.43,.94,8.43,2.3,12,4.06l-4.39,9.28c-3.01-1.37-6.31-2.57-9.9-3.58-3.59-1.01-7.47-1.51-11.64-1.51Z"/>
    <path id="Shape-5" data-name="Shape" class="cls-3" d="M1419.76,558.16c0,5.8-.75,10.97-2.26,15.53-1.5,4.55-3.68,8.4-6.51,11.53-2.84,3.14-6.27,5.53-10.29,7.18-4.02,1.65-8.57,2.48-13.64,2.48-4.73,0-9.06-.83-12.99-2.48-3.93-1.65-7.33-4.05-10.19-7.18-2.86-3.14-5.07-6.98-6.64-11.53-1.57-4.55-2.35-9.73-2.35-15.53,0-7.73,1.31-14.31,3.93-19.75,2.62-5.43,6.37-9.58,11.25-12.43,4.88-2.86,10.69-4.28,17.44-4.28s12.09,1.44,16.93,4.32c4.84,2.88,8.6,7.03,11.29,12.47,2.69,5.43,4.03,11.99,4.03,19.68Zm-53.78,0c0,5.67,.75,10.59,2.26,14.75,1.5,4.17,3.83,7.39,6.96,9.66,3.14,2.28,7.18,3.41,12.12,3.41s8.93-1.14,12.09-3.41c3.16-2.28,5.49-5.5,7-9.66,1.5-4.17,2.26-9.08,2.26-14.75s-.75-10.49-2.26-14.59c-1.5-4.1-3.83-7.27-6.96-9.5-3.14-2.23-7.2-3.35-12.19-3.35-7.35,0-12.74,2.43-16.15,7.28-3.42,4.85-5.13,11.57-5.13,20.16Z"/>
    <path id="Path-7" data-name="Path" class="cls-3" d="M1509.14,521.7c7.78,0,13.65,2.03,17.61,6.09,3.96,4.06,5.93,10.58,5.93,19.55v46.26h-10.58v-45.74c0-5.71-1.24-10-3.71-12.85-2.47-2.86-6.14-4.28-11-4.28-6.84,0-11.8,1.98-14.9,5.93-3.1,3.95-4.64,9.77-4.64,17.46v39.49h-10.64v-45.74c0-3.82-.55-7-1.64-9.53-1.1-2.53-2.73-4.43-4.9-5.7-2.17-1.27-4.91-1.9-8.22-1.9-4.69,0-8.45,.97-11.29,2.9s-4.89,4.8-6.16,8.6c-1.27,3.8-1.9,8.47-1.9,14.01v37.37h-10.71v-70.61h8.64l1.61,9.99h.58c1.42-2.45,3.2-4.51,5.35-6.18,2.15-1.68,4.56-2.94,7.22-3.8,2.67-.86,5.5-1.29,8.51-1.29,5.37,0,9.88,1,13.51,3,3.63,2,6.27,5.04,7.9,9.12h.58c2.32-4.08,5.5-7.12,9.54-9.12,4.04-2,8.47-3,13.28-3Z"/>
    <path id="Shape-6" data-name="Shape" class="cls-3" d="M1582.01,521.7c8.81,0,15.84,3.03,21.09,9.08,5.25,6.06,7.87,15.16,7.87,27.32,0,8.03-1.2,14.77-3.61,20.23s-5.79,9.58-10.16,12.37c-4.36,2.79-9.51,4.19-15.45,4.19-3.74,0-7.03-.49-9.87-1.48-2.84-.99-5.27-2.32-7.29-3.99-2.02-1.68-3.7-3.5-5.03-5.48h-.77c.13,1.68,.29,3.69,.48,6.06,.19,2.36,.29,4.42,.29,6.18v28.99h-10.77v-102.18h8.84l1.42,10.44h.52c1.38-2.15,3.05-4.11,5.03-5.89,1.98-1.78,4.4-3.2,7.26-4.25,2.86-1.05,6.24-1.58,10.16-1.58Zm-1.87,9.02c-4.9,0-8.85,.94-11.83,2.83-2.99,1.89-5.17,4.71-6.55,8.47-1.38,3.76-2.11,8.47-2.19,14.14v2.06c0,5.97,.66,11.02,1.97,15.14,1.31,4.12,3.48,7.26,6.51,9.41,3.03,2.15,7.1,3.22,12.22,3.22,4.39,0,8.04-1.18,10.96-3.54,2.92-2.36,5.11-5.66,6.55-9.89,1.44-4.23,2.16-9.09,2.16-14.59,0-8.33-1.62-14.96-4.87-19.88-3.25-4.92-8.22-7.38-14.93-7.38Z"/>
    <path id="Shape-7" data-name="Shape" class="cls-3" d="M1650.18,521.83c8.43,0,14.68,1.89,18.77,5.67,4.08,3.78,6.13,9.81,6.13,18.1v48h-7.8l-2.06-10.44h-.52c-1.98,2.58-4.04,4.74-6.19,6.47s-4.63,3.05-7.45,3.93c-2.82,.88-6.27,1.32-10.35,1.32-4.3,0-8.12-.75-11.45-2.25-3.33-1.5-5.95-3.78-7.87-6.83-1.91-3.05-2.87-6.91-2.87-11.6,0-7.04,2.79-12.46,8.38-16.24,5.59-3.78,14.1-5.84,25.54-6.18l12.19-.52v-4.32c0-6.1-1.31-10.37-3.93-12.82-2.62-2.45-6.32-3.67-11.09-3.67-3.7,0-7.22,.54-10.58,1.61-3.35,1.07-6.54,2.34-9.54,3.8l-3.29-8.12c3.18-1.63,6.84-3.03,10.96-4.19,4.13-1.16,8.47-1.74,13.03-1.74Zm14.32,36.98l-10.77,.45c-8.81,.34-15.03,1.78-18.64,4.32-3.61,2.53-5.42,6.12-5.42,10.76,0,4.04,1.23,7.02,3.68,8.96,2.45,1.93,5.7,2.9,9.74,2.9,6.28,0,11.41-1.74,15.41-5.22,4-3.48,6-8.7,6-15.66v-6.51Z"/>
    <path id="Path-8" data-name="Path" class="cls-3" d="M1724.73,521.7c8.38,0,14.73,2.05,19.02,6.15,4.3,4.1,6.45,10.68,6.45,19.75v46h-10.58v-45.29c0-5.88-1.34-10.29-4.03-13.21-2.69-2.92-6.8-4.38-12.35-4.38-7.82,0-13.33,2.21-16.51,6.64-3.18,4.42-4.77,10.84-4.77,19.26v36.98h-10.71v-70.61h8.64l1.61,10.18h.58c1.5-2.49,3.42-4.58,5.74-6.28,2.32-1.7,4.92-2.99,7.8-3.87,2.88-.88,5.91-1.32,9.09-1.32Z"/>
    <path id="Path-9" data-name="Path" class="cls-3" d="M1755.23,522.99h11.48l15.61,40.97c.9,2.41,1.74,4.71,2.52,6.93,.77,2.21,1.46,4.33,2.06,6.35,.6,2.02,1.07,3.97,1.42,5.86h.45c.6-2.15,1.46-4.97,2.58-8.47,1.12-3.5,2.32-7.08,3.61-10.73l14.77-40.91h11.54l-30.76,80.98c-1.63,4.34-3.54,8.12-5.71,11.34-2.17,3.22-4.8,5.7-7.9,7.44-3.1,1.74-6.84,2.61-11.22,2.61-2.02,0-3.8-.12-5.35-.35-1.55-.24-2.88-.5-4-.81v-8.57c.95,.21,2.1,.41,3.45,.58,1.35,.17,2.76,.26,4.22,.26,2.67,0,4.98-.5,6.93-1.51,1.96-1.01,3.64-2.48,5.06-4.41,1.42-1.93,2.64-4.23,3.68-6.89l3.87-9.92-28.31-70.74Z"/>
  </g>
  <g id="Kount">
    <path id="Path-10" data-name="Path" class="cls-3" d="M893.64,425.69h-60.86l-100.15-145.89-31.59,25.73v120.17h-52.83V104.21h52.83v153.7c6.46-7.92,12.99-15.81,19.59-23.69,6.6-7.88,13.21-15.81,19.81-23.8l90.57-106.2h59.76l-120.18,140.84,123.04,180.63Z"/>
    <path id="Shape-8" data-name="Shape" class="cls-3" d="M1124.79,303.54c0,20.16-2.66,38.08-7.98,53.76-5.32,15.69-13.02,28.93-23.11,39.74-10.09,10.81-22.25,19.02-36.48,24.63-14.23,5.61-30.3,8.41-48.2,8.41-16.73,0-32.06-2.8-46-8.41-13.94-5.61-26.01-13.82-36.21-24.63-10.2-10.81-18.09-24.06-23.66-39.74-5.58-15.69-8.36-33.61-8.36-53.76,0-26.83,4.66-49.6,13.98-68.33,9.32-18.73,22.62-32.98,39.89-42.77,17.28-9.78,37.88-14.68,61.8-14.68,22.52,0,42.37,4.91,59.54,14.73s30.6,24.1,40.28,42.82c9.68,18.73,14.53,41.47,14.53,68.22Zm-176.86,0c0,17.74,2.16,32.91,6.49,45.52,4.33,12.61,11.04,22.24,20.14,28.91,9.1,6.67,20.87,10,35.33,10s26.01-3.33,35.11-10c9.1-6.67,15.79-16.31,20.08-28.91,4.29-12.61,6.44-27.78,6.44-45.52s-2.15-32.8-6.44-45.19c-4.29-12.39-10.99-21.84-20.08-28.37-9.1-6.52-20.91-9.78-35.44-9.78-21.42,0-37.05,7.18-46.88,21.55-9.83,14.37-14.75,34.96-14.75,61.79Z"/>
    <path id="Path-11" data-name="Path" class="cls-3" d="M1375.08,182.27v243.41h-40.72l-7.15-32.65h-2.75c-5.14,8.36-11.67,15.28-19.59,20.78-7.92,5.5-16.75,9.58-26.47,12.26-9.72,2.68-19.94,4.01-30.65,4.01-18.34,0-34.01-3.1-46.99-9.29-12.99-6.19-22.93-15.81-29.82-28.86-6.9-13.05-10.35-29.9-10.35-50.57V182.27h52.06v149.41c0,18.84,3.85,32.96,11.56,42.38,7.7,9.42,19.66,14.13,35.88,14.13s28.27-3.24,37.47-9.73c9.21-6.49,15.77-16.03,19.7-28.64,3.93-12.61,5.89-28.04,5.89-46.29v-121.27h51.95Z"/>
    <path id="Path-12" data-name="Path" class="cls-3" d="M1554.39,177.77c27.44,0,48.83,7.07,64.16,21.22,15.33,14.15,23,36.83,23,68.05v158.65h-51.62v-149.08c0-18.84-3.89-32.98-11.67-42.44-7.78-9.46-19.81-14.18-36.1-14.18-23.62,0-40.02,7.26-49.19,21.77-9.17,14.51-13.76,35.51-13.76,63v120.94h-51.84V182.27h40.39l7.26,33.09h2.86c5.21-8.5,11.76-15.52,19.64-21.05s16.69-9.67,26.41-12.42c9.72-2.75,19.86-4.12,30.43-4.12Z"/>
    <path id="Path-13" data-name="Path" class="cls-3" d="M1783,388.42c6.68,0,13.33-.62,19.97-1.87,6.64-1.25,12.67-2.79,18.1-4.62v39.14c-5.72,2.57-13.13,4.71-22.23,6.43-9.1,1.72-18.6,2.58-28.5,2.58-13.72,0-26.1-2.31-37.14-6.93-11.04-4.62-19.79-12.55-26.25-23.8-6.46-11.25-9.68-26.88-9.68-46.89V221.74h-33.24v-23.09l35.77-18.36,16.95-52.11h32.47v54.09h69.77v39.47h-69.77v130.17c0,12.24,3.08,21.38,9.24,27.43,6.16,6.05,14.34,9.07,24.54,9.07Z"/>
  </g>
  <g id="_" data-name="®">
    <path id="Shape-9" data-name="Shape" class="cls-2" d="M1851.18,173.83v-35.25h10.48c4.32,0,7.5,.89,9.54,2.68s3.06,4.41,3.06,7.87c0,2.54-.64,4.54-1.93,6-1.29,1.46-2.76,2.52-4.41,3.18l9.32,15.53h-6.87l-7.89-13.73h-5.2v13.73h-6.1Zm6.1-18.73h4.18c2.13,0,3.77-.53,4.92-1.6,1.14-1.07,1.72-2.47,1.72-4.23,0-1.96-.53-3.38-1.58-4.25-1.05-.87-2.76-1.3-5.13-1.3h-4.1v11.37Zm5.04,30.63c-4.27,0-8.2-.73-11.8-2.19-3.6-1.46-6.73-3.51-9.38-6.15-2.66-2.64-4.71-5.76-6.16-9.35-1.45-3.59-2.18-7.52-2.18-11.76s.74-8.05,2.21-11.63c1.47-3.58,3.54-6.71,6.21-9.37,2.67-2.67,5.8-4.75,9.39-6.24,3.59-1.5,7.49-2.25,11.71-2.25s7.93,.73,11.5,2.2c3.57,1.46,6.71,3.52,9.4,6.18,2.7,2.65,4.81,5.77,6.33,9.35,1.52,3.58,2.29,7.5,2.29,11.76s-.73,8.17-2.19,11.76c-1.46,3.59-3.52,6.71-6.17,9.35-2.66,2.64-5.78,4.69-9.37,6.15-3.59,1.46-7.52,2.19-11.79,2.19Zm0-4.57c3.39,0,6.57-.61,9.53-1.83,2.96-1.22,5.57-2.95,7.82-5.18,2.25-2.23,4.01-4.86,5.28-7.89,1.27-3.03,1.9-6.36,1.9-9.98,0-3.42-.61-6.64-1.84-9.65-1.22-3.01-2.94-5.66-5.14-7.96-2.2-2.3-4.8-4.1-7.78-5.39-2.98-1.29-6.24-1.94-9.77-1.94s-6.82,.61-9.81,1.84c-3,1.23-5.6,2.96-7.82,5.2-2.22,2.24-3.94,4.87-5.16,7.91-1.22,3.04-1.84,6.37-1.84,9.99s.6,6.8,1.81,9.82c1.2,3.02,2.91,5.66,5.11,7.91,2.2,2.25,4.81,4.01,7.81,5.26,3,1.25,6.3,1.88,9.9,1.88Z"/>
  </g>
  <g id="ICON">
    <path class="cls-1" d="M307.4,0l177.21,102.31h0l37.78,21.81c10.36,5.98,16.75,17.04,16.75,29.01v228.92c0,11.97-6.38,23.03-16.75,29.01l-19.23,11.1h-.12c-.52,.32-1.03,.66-1.56,.97l-194.09,112.05L138.59,267.6,307.4,0Z"/>
    <path id="Path-14" data-name="Path" class="cls-4" d="M307.4,535.19c-108.8-31.21-165.12-50.68-170.65-58.42L5.68,286.62c-7.58-11.9-7.58-27.24,0-39.14L136.75,55.05c5.74-7.41,62.62-25.76,170.65-55.05L138.59,267.6l168.81,267.6Z"/>
  </g>
</svg>